<?xml version="1.0" standalone="no"?>
<!DOCTYPE svg PUBLIC "-//W3C//DTD SVG 20010904//EN"
 "http://www.w3.org/TR/2001/REC-SVG-20010904/DTD/svg10.dtd">
<svg version="1.0" xmlns="http://www.w3.org/2000/svg"
 width="16.000000pt" height="16.000000pt" viewBox="0 0 16.000000 16.000000"
 preserveAspectRatio="xMidYMid meet">
<metadata>
Created by potrace 1.11, written by Peter Selinger 2001-2013
</metadata>
<g transform="translate(0.000000,16.000000) scale(0.006154,-0.006154)"
fill="#000000" stroke="none">
<path d="M1172 2399 c-8 -13 -20 -17 -42 -14 -24 3 -37 -3 -64 -31 -18 -19
-39 -34 -47 -34 -12 0 -11 2 1 10 12 7 12 12 -4 29 -14 15 -21 17 -31 8 -7 -7
-11 -17 -8 -23 2 -6 -3 -14 -12 -18 -9 -3 -14 -2 -11 3 3 5 -2 12 -11 15 -10
4 -20 1 -25 -9 -12 -21 -24 -19 -48 7 -16 17 -23 19 -32 10 -7 -7 -8 -12 -3
-12 5 0 0 -7 -11 -15 -10 -8 -14 -15 -7 -15 12 0 12 -17 0 -37 -4 -6 -1 -14 5
-16 8 -4 7 -6 -3 -6 -18 -1 -32 -25 -22 -35 4 -3 16 -6 27 -6 18 -1 18 -3 -6
-16 -33 -17 -36 -30 -8 -39 28 -9 14 -28 -16 -22 -17 3 -25 -1 -30 -16 -4 -12
-2 -23 5 -25 6 -2 11 -10 11 -18 0 -12 -4 -12 -21 -4 -11 7 -18 14 -15 17 3 4
1 12 -5 20 -9 10 -8 13 2 13 8 0 6 7 -7 18 -17 17 -20 17 -31 3 -7 -9 -13 -24
-13 -35 0 -12 -5 -16 -14 -13 -16 6 -32 -26 -21 -42 3 -6 -2 -14 -10 -19 -23
-12 -28 -82 -6 -82 13 0 13 -2 2 -9 -9 -6 -10 -10 -1 -13 7 -2 4 -12 -10 -28
-12 -14 -17 -26 -11 -28 6 -2 2 -13 -9 -25 -31 -33 -26 -46 11 -27 22 12 24 3
5 -22 -10 -14 -16 -15 -27 -5 -7 7 -10 8 -6 3 3 -5 -1 -14 -10 -21 -14 -11
-12 -14 16 -26 17 -8 29 -19 27 -26 -8 -20 11 -25 28 -7 12 11 16 12 15 2 -2
-22 -17 -64 -18 -50 -1 7 -6 10 -11 7 -6 -4 -7 -12 -4 -18 4 -7 4 -9 -1 -5 -4
4 -17 3 -28 -3 -12 -7 -17 -7 -13 -1 3 6 1 12 -6 14 -6 2 -13 15 -15 29 -5 33
-34 55 -46 34 -5 -10 -4 -21 2 -29 8 -10 5 -16 -13 -24 -15 -7 -27 -7 -33 -1
-15 15 -37 1 -52 -33 -14 -30 -15 -31 -22 -10 -5 12 -13 22 -19 22 -5 0 -10 8
-11 18 0 12 -3 10 -10 -8 -6 -14 -11 -29 -12 -35 -3 -17 -22 -33 -31 -27 -5 3
-6 0 -2 -6 3 -6 2 -13 -4 -17 -17 -10 -11 -33 10 -40 11 -3 20 -12 20 -20 0
-7 9 -15 21 -18 17 -5 19 -9 10 -25 -12 -23 -5 -33 17 -25 10 4 13 2 8 -6 -11
-18 3 -72 17 -64 7 3 3 -3 -7 -15 -22 -26 -14 -41 10 -21 16 13 16 12 5 -9
-10 -18 -9 -23 4 -28 8 -3 15 -11 15 -16 0 -6 -7 -7 -16 -4 -9 3 -12 2 -9 -5
4 -6 -1 -19 -11 -30 -10 -11 -13 -19 -6 -20 21 -2 27 -4 38 -11 15 -10 24 1
17 20 -5 11 -3 13 7 7 10 -6 12 -4 7 8 -6 17 16 32 56 36 9 1 9 3 -1 9 -9 6
-6 12 12 20 28 13 39 -1 24 -30 -6 -13 -5 -17 4 -14 7 1 10 1 5 -1 -4 -3 -5
-9 -2 -14 4 -5 -1 -6 -9 -3 -11 4 -16 0 -16 -11 0 -11 -5 -15 -15 -11 -18 7
-20 -5 -3 -22 8 -8 8 -12 1 -12 -6 0 -13 -6 -16 -14 -4 -10 0 -14 14 -11 24 5
24 -3 2 -28 -17 -20 -17 -20 1 -14 14 6 17 3 12 -8 -6 -18 5 -20 22 -3 9 9 11
6 7 -10 -4 -21 -3 -21 23 -5 15 9 37 28 50 41 12 14 22 19 22 12 0 -7 8 -10
20 -7 11 3 18 1 14 -4 -3 -5 0 -9 7 -9 8 0 8 -4 -1 -15 -10 -13 -9 -15 10 -15
14 0 20 -5 17 -13 -3 -8 1 -14 9 -14 8 0 14 4 14 9 0 5 23 7 50 4 31 -3 50 -1
50 5 0 6 6 9 13 6 6 -2 21 3 31 12 17 14 19 14 14 1 -7 -20 33 -19 59 1 11 9
10 4 -5 -16 l-23 -30 27 -7 c32 -9 35 -7 37 21 1 11 2 21 4 21 11 0 53 -25 53
-32 0 -5 5 -6 10 -3 6 4 7 12 3 18 -5 9 -3 9 8 1 8 -5 20 -9 27 -8 6 1 17 2
23 3 5 0 7 5 4 11 -4 7 2 7 19 0 24 -9 25 -8 20 23 -4 24 -3 28 5 16 6 -9 9
-51 7 -95 -2 -43 -4 -98 -5 -121 l-1 -43 -200 0 -200 0 0 -27 c0 -16 9 -71 19
-123 11 -52 22 -111 25 -130 3 -19 9 -48 14 -65 l8 -30 331 -3 331 -2 42 175
c23 97 39 182 36 190 -4 12 -35 15 -171 15 -154 0 -166 1 -161 18 3 9 7 33 10
52 4 39 44 131 60 142 6 4 7 8 2 8 -6 0 -5 5 2 12 8 8 15 8 27 -2 12 -10 13
-15 4 -20 -6 -4 -8 -13 -5 -19 4 -6 12 -9 17 -6 5 4 9 0 9 -7 0 -9 3 -9 10 2
6 9 10 11 10 3 0 -7 7 -10 15 -7 8 4 12 10 9 16 -9 15 30 5 44 -12 8 -8 11
-10 8 -4 -3 6 1 11 8 11 9 0 12 -7 8 -16 -5 -14 -4 -14 12 -2 9 8 15 20 12 27
-3 8 0 11 9 8 9 -4 12 1 10 13 -2 10 -4 18 -5 18 -1 0 -3 8 -5 17 -2 13 3 16
26 13 16 -2 33 -6 39 -10 20 -12 93 -15 107 -4 10 9 21 7 45 -4 23 -11 36 -13
45 -5 9 7 13 7 13 -1 0 -6 -4 -11 -10 -11 -5 0 -10 -7 -10 -15 0 -17 16 -20
25 -5 4 6 16 8 28 4 22 -7 22 -6 3 15 -11 11 -16 24 -13 27 4 4 9 -1 13 -10 3
-9 15 -16 26 -16 16 0 18 3 10 13 -8 10 -6 13 10 14 12 1 24 7 28 13 3 6 17 9
30 8 16 -2 25 2 25 12 0 17 46 21 57 5 5 -6 8 -2 8 9 0 11 -7 28 -17 38 -11
12 -12 18 -3 18 6 0 10 7 7 14 -4 10 -1 13 9 9 8 -3 20 0 28 6 7 6 16 8 19 4
7 -6 9 1 11 37 1 8 7 16 14 16 6 1 17 2 23 3 8 1 7 7 -2 18 -10 11 -10 14 -1
9 18 -11 15 9 -4 25 -11 9 -17 10 -23 1 -4 -7 -11 0 -18 19 -10 25 -9 28 1 20
7 -6 27 -8 45 -5 27 6 30 9 19 22 -11 13 -11 14 1 8 10 -7 12 -2 6 25 -9 42
-35 83 -35 56 0 -9 -5 -17 -12 -17 -6 0 -22 -10 -35 -22 -19 -18 -23 -19 -23
-5 0 11 -5 14 -16 10 -11 -4 -15 -1 -13 13 3 23 -17 73 -37 95 -10 12 -12 19
-5 24 6 3 11 1 11 -4 0 -6 5 -11 11 -11 5 0 8 4 5 9 -3 5 3 11 14 14 13 3 18
10 14 21 -4 11 -1 16 10 16 9 0 16 3 16 6 0 11 -29 34 -44 34 -19 0 -21 11 -5
27 8 8 7 17 -3 34 -16 28 -38 53 -38 43 0 -3 -6 -1 -13 5 -8 6 -16 9 -18 6 -3
-2 -5 4 -5 15 0 10 5 18 10 17 20 -4 17 32 -3 43 -14 7 -21 7 -21 0 0 -5 -8
-10 -19 -10 -26 0 -22 41 6 55 16 8 19 15 12 26 -13 20 -11 29 4 23 7 -2 21 4
31 15 17 18 17 19 -4 26 -11 4 -27 2 -35 -5 -11 -9 -12 -7 -8 9 9 35 -5 65
-36 79 -17 8 -35 11 -41 7 -14 -9 -52 4 -45 16 4 5 0 9 -7 10 -7 0 -4 4 7 8
11 5 28 7 37 5 11 -2 15 2 11 12 -3 8 0 14 6 14 7 0 -1 12 -16 28 -15 15 -31
26 -36 24 -5 -1 -15 5 -22 15 -11 15 -15 15 -29 4 -9 -7 -13 -17 -10 -22 3 -5
-10 -10 -28 -10 -18 -1 -37 -2 -43 -4 -5 -1 -14 -3 -19 -3 -5 -1 -3 -9 4 -17
11 -13 10 -14 -5 -9 -11 5 -21 1 -27 -11 -8 -14 -12 -15 -19 -4 -7 11 -11 10
-23 -6 -8 -11 -12 -23 -10 -27 7 -11 -8 -10 -26 2 -12 8 -12 10 2 15 10 4 14
14 11 26 -6 20 -28 26 -38 9 -3 -5 -15 -10 -27 -10 -19 0 -19 1 3 19 20 17 22
23 12 39 -8 13 -8 23 -1 30 15 15 0 34 -21 27 -11 -3 -18 0 -18 8 0 7 -3 25
-7 41 -5 20 -3 26 5 21 12 -8 31 14 23 27 -9 14 -42 9 -48 -8 -5 -13 -9 -14
-21 -4 -9 7 -18 10 -22 6 -3 -3 0 -6 7 -6 7 0 11 -2 8 -5 -8 -9 -38 6 -32 16
12 20 -12 7 -43 -23 -18 -18 -33 -27 -33 -20 0 7 -9 12 -20 12 -11 0 -20 -7
-20 -16 0 -11 -6 -14 -22 -9 -28 9 -47 25 -30 25 16 0 15 18 -1 35 -11 11 -15
10 -25 -6z m498 -227 c0 -13 -12 -22 -22 -16 -10 6 -1 24 13 24 5 0 9 -4 9 -8z
m126 -68 c-3 -9 -6 -17 -6 -20 0 -2 -7 -1 -15 2 -12 5 -13 10 -4 20 16 19 33
18 25 -2z m104 -54 c0 -5 -2 -10 -4 -10 -3 0 -8 5 -11 10 -3 6 -1 10 4 10 6 0
11 -4 11 -10z m-30 -40 c0 -5 -2 -10 -4 -10 -3 0 -8 5 -11 10 -3 6 -1 10 4 10
6 0 11 -4 11 -10z m-1200 -214 c0 -8 -4 -17 -8 -20 -13 -8 -35 11 -28 23 10
16 36 14 36 -3z m85 -76 c-3 -5 -13 -10 -21 -10 -8 0 -12 5 -9 10 3 6 13 10
21 10 8 0 12 -4 9 -10z m-51 -53 c-5 -15 -7 -15 -22 0 -12 12 -14 17 -4 21 7
2 9 9 6 15 -4 7 1 5 10 -4 10 -9 14 -22 10 -32z m1304 -159 c-7 -19 -35 -21
-35 -3 0 8 9 15 20 15 10 0 17 -5 15 -12z m-1098 -312 c0 -3 -4 -8 -10 -11 -5
-3 -10 -1 -10 4 0 6 5 11 10 11 6 0 10 -2 10 -4z m-30 -41 c-12 -15 -30 -12
-30 6 0 5 10 9 21 9 18 0 19 -2 9 -15z m-81 -31 c-14 -13 -16 -13 -16 0 0 8 4
13 9 10 4 -3 8 0 8 7 0 7 3 9 7 5 4 -3 0 -13 -8 -22z m36 16 c3 -5 1 -10 -4
-10 -6 0 -11 5 -11 10 0 6 2 10 4 10 3 0 8 -4 11 -10z m645 -6 c0 -8 -19 -13
-24 -6 -3 5 1 9 9 9 8 0 15 -2 15 -3z m-25 -42 c-3 -3 -11 0 -18 7 -9 10 -8
11 6 5 10 -3 15 -9 12 -12z m-173 -14 c-2 -10 -7 -18 -11 -18 -4 0 -7 8 -7 18
0 10 5 19 12 19 6 0 9 -9 6 -19z"/>
<path d="M1747 992 c-59 -3 -69 -6 -77 -25 -5 -12 -35 -129 -67 -259 l-58
-238 -345 0 c-363 0 -390 -3 -374 -43 5 -14 19 -17 71 -17 l66 0 -25 -25 c-47
-46 -43 -128 8 -176 36 -34 121 -34 157 -1 52 49 60 129 16 173 -10 10 -19 21
-19 24 0 3 52 5 115 5 l116 0 -26 -27 c-14 -15 -26 -35 -26 -43 -1 -8 -3 -27
-5 -42 -3 -32 31 -87 66 -105 32 -16 78 -16 110 0 35 18 69 73 66 105 -2 15
-4 34 -5 43 0 9 -12 28 -26 43 l-24 26 64 0 c64 0 64 0 73 33 5 17 33 131 62
252 30 121 57 224 61 229 7 8 55 13 137 15 27 1 32 5 32 26 0 14 -3 25 -7 26
-23 3 -76 4 -136 1z m-679 -639 c37 -31 30 -90 -12 -112 -45 -25 -96 9 -96 64
0 57 64 85 108 48z m370 1 c15 -10 22 -25 22 -49 0 -80 -102 -100 -128 -25
-23 63 49 114 106 74z"/>
</g>
</svg>
