<?xml version="1.0" standalone="no"?>
<!DOCTYPE svg PUBLIC "-//W3C//DTD SVG 20010904//EN"
 "http://www.w3.org/TR/2001/REC-SVG-20010904/DTD/svg10.dtd">
<svg version="1.0" xmlns="http://www.w3.org/2000/svg"
 width="260.000000pt" height="260.000000pt" viewBox="0 0 260.000000 260.000000"
 preserveAspectRatio="xMidYMid meet">
<metadata>
Created by potrace 1.11, written by Peter Selinger 2001-2013
</metadata>
<g transform="translate(0.000000,260.000000) scale(0.100000,-0.100000)"
fill="#000000" stroke="none">
<path d="M1410 2407 c0 -10 -4 -15 -10 -12 -14 9 -13 -8 2 -23 8 -8 5 -14 -16
-22 -35 -13 -36 -13 -36 4 0 22 -17 28 -33 12 -13 -13 -18 -11 -42 14 -27 29
-51 31 -41 4 3 -8 0 -11 -9 -7 -8 3 -12 9 -9 14 8 13 -10 11 -24 -3 -9 -9 -13
-7 -18 5 -9 25 -44 22 -44 -4 0 -15 4 -19 16 -15 12 5 15 2 10 -10 -4 -9 -1
-24 6 -33 12 -15 11 -15 -6 -1 -18 14 -19 13 -14 -8 5 -19 3 -22 -12 -17 -22
7 -37 -12 -22 -27 7 -7 7 -16 -1 -30 -10 -16 -8 -22 11 -36 22 -17 22 -18 3
-19 -12 -1 -23 2 -26 8 -10 16 -32 10 -38 -11 -3 -14 0 -20 10 -20 13 0 13 -3
3 -15 -13 -15 -35 -21 -26 -7 2 4 -3 16 -11 27 -11 15 -17 16 -20 7 -4 -10 -8
-8 -18 5 -11 15 -16 16 -27 5 -7 -7 -13 -17 -13 -23 0 -5 -3 -9 -7 -9 -5 0
-11 0 -14 0 -3 0 4 14 16 30 19 26 19 31 6 36 -9 4 -28 4 -41 2 -14 -3 -25 -2
-25 3 0 4 -7 14 -15 22 -16 17 -59 11 -48 -6 4 -6 0 -8 -8 -6 -8 3 -27 -8 -44
-23 -16 -15 -24 -28 -16 -28 7 0 11 -6 8 -14 -3 -8 1 -13 11 -13 35 0 42 -3
42 -18 0 -8 -6 -15 -12 -15 -7 0 -5 -5 5 -11 18 -11 24 -39 7 -39 -5 0 -10 5
-10 11 0 15 -31 38 -51 39 -19 0 -73 -40 -65 -48 3 -3 1 -11 -6 -19 -10 -12
-7 -13 18 -8 28 6 28 6 6 -7 -12 -8 -19 -18 -15 -22 4 -5 -2 -3 -13 4 -12 7
-29 10 -38 7 -16 -6 -16 -8 -2 -23 9 -8 16 -20 16 -26 0 -6 6 -6 15 2 9 7 18
10 22 6 3 -3 2 -6 -4 -6 -6 0 -13 -9 -16 -20 -3 -13 0 -20 10 -20 8 0 20 -6
27 -13 21 -21 -5 -50 -37 -42 -14 4 -28 2 -31 -3 -7 -12 3 -44 13 -38 4 3 7
-4 7 -14 0 -10 -3 -18 -6 -18 -23 2 -40 -4 -35 -12 3 -5 0 -10 -7 -10 -20 0
-37 -44 -25 -66 9 -17 1 -28 -18 -24 -7 1 -35 -26 -35 -34 0 -3 7 -6 16 -6 11
0 14 -5 10 -16 -4 -11 1 -18 14 -21 11 -3 17 -9 14 -14 -8 -13 10 -11 24 3 17
17 15 -2 -2 -21 -8 -9 -16 -23 -18 -31 -2 -8 -8 -20 -15 -27 -6 -7 -9 -22 -6
-35 5 -17 3 -20 -10 -15 -12 4 -17 1 -18 -11 0 -10 -3 -12 -6 -4 -2 6 -11 12
-19 12 -8 0 -14 4 -14 9 0 5 -9 11 -21 14 -12 3 -18 10 -14 16 3 6 3 11 0 11
-8 0 -35 -65 -35 -85 0 -10 5 -13 13 -9 7 5 6 0 -3 -11 -14 -17 -13 -18 8 -13
12 4 20 2 16 -3 -8 -14 30 -11 45 4 10 10 10 7 0 -16 -9 -19 -18 -26 -29 -22
-12 4 -19 -1 -23 -15 -3 -13 -1 -18 6 -13 7 4 6 -1 -2 -10 -12 -15 -11 -17 8
-17 15 0 21 -6 21 -21 0 -13 4 -18 12 -13 8 5 9 2 5 -11 -6 -14 -3 -16 13 -12
13 3 18 1 13 -6 -4 -6 1 -8 14 -5 16 4 21 1 21 -18 0 -14 -4 -27 -9 -30 -5 -3
-9 -14 -9 -26 0 -15 3 -18 13 -10 17 15 52 8 52 -9 0 -9 10 -14 28 -13 15 1
27 -2 27 -6 0 -4 12 -11 27 -15 21 -5 24 -8 12 -16 -11 -7 -9 -9 7 -9 12 0 25
7 28 16 4 9 9 14 13 10 3 -3 -2 -16 -13 -28 -19 -21 -19 -21 2 -16 12 3 29 1
38 -4 16 -9 16 -7 7 10 -14 26 -14 42 -1 22 9 -13 11 -13 20 0 8 12 10 12 10
1 0 -11 5 -10 21 5 16 15 24 16 39 6 24 -15 33 -15 25 -2 -3 5 -1 18 4 27 9
16 10 15 8 -6 -2 -20 3 -25 23 -25 14 0 31 3 37 7 20 13 72 15 76 3 2 -6 1
-21 -4 -33 -6 -15 -4 -23 7 -27 8 -3 12 -10 9 -16 -4 -6 4 -9 19 -8 13 1 22 6
20 10 -3 4 -2 8 3 9 4 0 16 2 25 4 9 2 22 -3 29 -11 13 -16 39 -19 39 -4 0 5
3 9 8 9 20 -3 21 3 5 29 -17 25 -17 26 0 13 10 -8 17 -9 17 -3 0 6 7 9 15 6 8
-4 12 -10 9 -15 -3 -5 -1 -9 4 -9 12 0 53 -98 58 -140 3 -19 7 -43 10 -52 5
-17 -7 -18 -161 -18 -131 0 -167 -3 -171 -14 -3 -7 11 -83 30 -167 20 -85 38
-164 41 -176 l5 -23 330 0 c189 0 331 4 334 9 8 13 66 320 66 349 l0 22 -200
0 -200 0 -1 38 c0 20 -2 78 -4 129 -3 55 0 95 6 98 6 4 8 -3 5 -18 -4 -21 0
-26 27 -32 66 -15 68 -15 61 -3 -6 10 -5 10 7 1 17 -14 62 -6 52 9 -3 6 0 9 8
6 8 -3 15 -14 17 -26 3 -18 8 -21 30 -16 33 8 39 13 27 22 -6 4 -17 16 -25 27
-13 18 -13 19 0 9 8 -6 27 -13 42 -16 21 -4 25 -2 20 11 -4 12 0 12 17 -4 14
-12 21 -14 19 -6 -2 7 3 16 10 18 7 3 10 -1 6 -10 -8 -22 11 -29 51 -18 25 7
39 6 48 -2 7 -7 19 -13 26 -15 12 -3 12 0 1 12 -11 14 -9 16 8 16 24 0 38 16
20 23 -10 4 -10 6 0 6 7 1 11 5 8 10 -4 5 4 7 16 3 14 -3 19 -2 14 6 -13 22 4
12 34 -19 16 -18 30 -28 30 -24 0 4 9 0 21 -11 15 -14 20 -15 17 -4 -2 10 3
14 16 12 17 -3 18 -2 7 12 -12 14 -11 16 3 10 17 -7 23 11 6 21 -17 11 -11 24
9 20 14 -2 18 1 14 11 -3 7 -10 11 -15 8 -6 -4 -5 2 1 14 15 28 14 31 -9 25
-16 -4 -19 -2 -14 11 6 14 -5 21 -28 17 -5 0 -8 4 -8 10 0 6 6 9 13 6 10 -4
12 3 9 25 -4 27 -3 29 15 19 11 -5 24 -7 29 -3 5 4 3 0 -4 -10 -14 -17 -1 -34
18 -23 6 3 10 1 10 -4 0 -6 7 -11 15 -11 9 0 12 -6 8 -17 -5 -11 -3 -14 6 -8
10 5 11 2 7 -13 -7 -21 -1 -23 41 -8 19 6 21 10 10 27 -6 10 -17 19 -24 19
-20 0 -24 17 -5 31 16 13 16 13 2 -6 -14 -19 -14 -19 3 -6 21 17 21 25 1 45
-8 9 -11 16 -5 16 5 0 17 -8 27 -17 17 -17 17 -17 10 7 -4 14 -7 31 -6 38 1 6
2 26 3 42 1 18 7 28 14 26 16 -7 24 5 13 19 -6 7 -7 20 -4 30 5 13 9 14 15 3
7 -10 10 -8 15 9 3 12 15 25 26 29 14 4 18 12 14 27 -3 12 -6 27 -6 32 0 6 -5
3 -10 -5 -8 -13 -10 -12 -10 3 0 9 -4 17 -10 17 -5 0 -9 3 -8 8 1 4 -2 17 -6
30 l-8 23 -23 -25 c-23 -24 -45 -20 -45 10 0 16 -31 27 -43 15 -5 -5 -17 -6
-28 -4 -15 4 -18 12 -14 34 3 15 1 30 -3 33 -14 8 -41 -17 -45 -39 -3 -22 -47
-72 -47 -54 0 6 -7 17 -15 25 -12 12 -15 12 -16 2 -1 -7 -5 -2 -9 12 -12 36
-11 50 1 50 5 0 8 -4 5 -9 -3 -5 1 -12 10 -15 24 -9 27 -8 22 12 -4 13 3 22
25 32 27 11 28 14 14 25 -9 7 -13 16 -9 21 4 4 0 3 -9 -4 -14 -10 -18 -10 -23
4 -10 27 -7 38 7 25 24 -19 28 2 5 26 -12 13 -16 23 -10 23 6 0 9 7 6 15 -4 8
-12 15 -18 15 -7 0 -13 7 -13 15 0 8 5 15 10 15 5 0 4 7 -3 15 -11 13 -10 14
2 10 11 -5 14 2 13 30 0 20 -7 40 -14 45 -8 4 -15 18 -16 31 -4 38 -4 39 -20
33 -10 -4 -15 0 -15 12 0 11 -7 27 -14 36 -12 17 -14 17 -31 -2 -10 -11 -13
-20 -7 -20 16 0 2 -40 -19 -51 -22 -12 -26 3 -4 21 23 19 -1 47 -36 42 -17 -3
-29 0 -29 7 0 6 6 11 14 11 8 0 18 5 21 10 8 13 -14 42 -25 35 -5 -3 -12 0
-16 6 -5 8 -1 10 14 7 21 -6 32 7 25 30 -3 6 -10 12 -17 12 -13 0 -15 38 -3
58 5 7 4 12 -2 12 -6 0 -11 6 -11 14 0 26 -21 29 -41 7 -23 -25 -32 -26 -49
-6 -9 11 -17 12 -30 5 -26 -14 -33 -12 -27 4 10 25 -25 28 -47 5 -12 -12 -16
-19 -9 -15 6 3 14 2 18 -4 14 -22 -26 -8 -40 14 -18 28 -68 51 -86 41 -7 -5
-19 2 -30 16 -16 20 -19 21 -19 6z m-663 -393 c-3 -3 -12 -4 -19 -1 -8 3 -5 6
6 6 11 1 17 -2 13 -5z m1213 -214 c13 -9 13 -11 0 -19 -16 -11 -43 5 -34 20 7
11 15 11 34 -1z m-84 -88 c-9 -9 -37 8 -31 18 5 8 11 7 21 -1 8 -6 12 -14 10
-17z m54 -28 c0 -3 -7 -12 -15 -20 -8 -9 -15 -13 -15 -11 0 3 -3 12 -6 21 -4
12 0 16 15 16 12 0 21 -3 21 -6z m-1303 -179 c0 -18 -28 -16 -35 3 -2 7 5 12
16 12 10 0 19 -7 19 -15z m1083 -311 c0 -8 -5 -12 -10 -9 -6 4 -8 11 -5 16 9
14 15 11 15 -7z m40 -33 c0 -18 -18 -21 -30 -6 -10 13 -9 15 9 15 11 0 21 -4
21 -9z m25 -21 c-3 -5 -11 -10 -16 -10 -6 0 -7 5 -4 10 3 6 11 10 16 10 6 0 7
-4 4 -10z m29 -6 c3 -8 2 -12 -4 -9 -6 3 -10 10 -10 16 0 14 7 11 14 -7z
m-639 -34 c-3 -5 -12 -10 -18 -10 -7 0 -6 4 3 10 19 12 23 12 15 0z m172 -19
c-1 -16 -4 -17 -15 -9 -10 9 -11 13 0 19 17 11 17 12 15 -10z"/>
<path d="M721 992 c-19 -6 -13 -52 7 -53 9 0 45 -2 80 -3 34 -1 66 -7 71 -12
4 -5 32 -107 60 -227 29 -120 57 -234 62 -253 l10 -34 64 0 65 0 -20 -20 c-58
-58 -42 -159 31 -198 14 -7 43 -11 67 -9 101 10 145 126 77 200 l-26 27 116 0
c63 0 115 -2 115 -5 0 -3 -9 -15 -20 -27 -42 -46 -35 -121 17 -170 36 -33 121
-33 157 1 51 48 55 130 8 176 l-25 25 66 0 c51 0 66 4 71 16 16 42 1 44 -368
44 l-352 0 -62 252 c-34 139 -66 256 -70 260 -7 7 -183 16 -201 10z m527 -639
c37 -32 30 -92 -14 -111 -35 -17 -47 -15 -72 8 -65 61 19 160 86 103z m370 1
c26 -18 30 -74 7 -98 -48 -47 -108 -21 -121 53 -4 20 42 61 68 61 13 0 34 -7
46 -16z"/>
</g>
</svg>
